<?xml version="1.0" standalone="no"?>
<!DOCTYPE svg PUBLIC "-//W3C//DTD SVG 20010904//EN"
 "http://www.w3.org/TR/2001/REC-SVG-20010904/DTD/svg10.dtd">
<svg version="1.0" xmlns="http://www.w3.org/2000/svg"
 width="700.000000pt" height="700.000000pt" viewBox="0 0 700.000000 700.000000"
 preserveAspectRatio="xMidYMid meet">
<metadata>
Created by potrace 1.11, written by Peter Selinger 2001-2013
</metadata>
<g transform="translate(0.000000,700.000000) scale(0.100000,-0.100000)"
fill="#000000" stroke="none">
<path d="M1460 6989 c-111 -22 -221 -103 -283 -211 -53 -89 -57 -135 -57 -705
l0 -523 2380 0 2380 0 0 513 c0 301 -4 539 -10 577 -28 175 -166 318 -339 350
-68 13 -4006 12 -4071 -1z m4086 -247 c53 -31 91 -91 99 -156 3 -28 5 -220 3
-426 l-3 -375 -2145 0 -2145 0 -3 375 c-2 206 0 398 3 426 10 85 64 150 143
174 15 5 923 8 2017 7 l1990 -2 41 -23z"/>
<path d="M1595 6501 c-49 -23 -99 -74 -119 -123 -24 -57 -22 -309 3 -364 22
-49 92 -111 140 -124 22 -6 236 -10 536 -10 553 0 543 -1 609 66 52 53 68 99
73 214 9 190 -27 283 -129 334 l-52 26 -510 0 c-476 0 -514 -2 -551 -19z
m1044 -146 c16 -8 31 -22 35 -30 3 -9 6 -68 6 -131 0 -128 -9 -147 -72 -159
-18 -3 -239 -5 -491 -3 l-459 3 -24 28 c-22 26 -24 37 -24 132 0 111 10 147
44 163 13 7 189 11 489 11 392 1 473 -1 496 -14z"/>
<path d="M4888 6501 c-99 -39 -172 -124 -198 -230 -34 -143 41 -295 179 -360
82 -38 193 -37 273 2 71 35 130 101 159 176 29 77 23 184 -13 256 -73 142
-254 213 -400 156z m164 -141 c21 -6 51 -27 71 -50 63 -68 62 -158 -2 -221
-109 -110 -283 -42 -283 111 0 74 33 124 102 154 42 18 63 19 112 6z"/>
<path d="M3205 6366 c-66 -30 -107 -93 -107 -166 0 -152 175 -232 293 -133 42
36 59 74 59 133 0 57 -15 93 -57 132 -51 48 -126 62 -188 34z m139 -92 c61
-62 18 -174 -68 -174 -42 0 -92 39 -101 79 -21 95 100 163 169 95z"/>
<path d="M3660 6364 c-96 -42 -135 -144 -91 -240 61 -135 255 -136 320 -2 26
54 26 100 2 153 -22 48 -44 69 -94 90 -45 19 -92 19 -137 -1z m141 -95 c41
-44 40 -96 -2 -138 -42 -42 -94 -43 -138 -2 -25 24 -31 37 -31 71 0 92 108
136 171 69z"/>
<path d="M4092 6359 c-63 -32 -97 -87 -97 -159 0 -65 25 -111 81 -150 74 -50
183 -30 240 45 36 48 44 133 17 184 -47 90 -153 125 -241 80z m149 -88 c23
-23 29 -38 29 -71 0 -102 -139 -139 -186 -49 -53 104 75 201 157 120z"/>
<path d="M1120 2893 c0 -2713 -3 -2571 57 -2671 65 -112 173 -190 292 -212 74
-14 3988 -14 4062 0 173 32 311 175 339 350 6 43 10 894 10 2543 l0 2477
-2380 0 -2380 0 0 -2487z m4528 405 l2 -1848 -2150 0 -2150 0 0 1843 c0 1014
3 1847 7 1850 3 4 970 6 2147 5 l2141 -3 3 -1847z m0 -2458 c2 -206 0 -398 -3
-426 -9 -72 -48 -129 -109 -159 l-50 -25 -1986 0 -1986 0 -50 25 c-54 27 -91
74 -105 132 -10 44 -12 816 -2 826 3 4 970 6 2147 5 l2141 -3 3 -375z"/>
<path d="M3268 4844 c-154 -24 -337 -83 -477 -154 -102 -51 -263 -165 -354
-250 -267 -250 -433 -569 -487 -935 -16 -103 -16 -327 0 -430 99 -667 585
-1185 1245 -1325 190 -41 455 -38 655 6 226 51 465 167 645 314 236 194 418
460 508 745 27 85 57 220 57 255 0 18 6 20 74 20 102 0 106 6 106 168 0 68 -5
132 -10 143 -9 16 -22 19 -85 19 l-73 0 -7 68 c-16 154 -94 397 -173 542 -107
196 -308 425 -477 542 -191 133 -424 229 -649 268 -139 24 -361 25 -498 4z
m524 -154 c195 -41 399 -131 556 -246 103 -76 254 -230 325 -331 129 -183 221
-420 252 -645 l6 -48 -71 0 c-48 0 -72 4 -74 13 -2 6 -11 53 -21 102 -82 448
-416 828 -853 975 -229 77 -508 84 -742 20 -627 -171 -1028 -783 -935 -1425
66 -460 394 -866 823 -1020 423 -152 872 -85 1225 181 243 184 429 481 484
774 l9 45 73 3 73 3 -6 -38 c-53 -301 -186 -554 -406 -773 -584 -584 -1533
-553 -2076 68 -235 268 -354 584 -354 942 0 356 117 669 350 938 223 258 537
428 879 477 130 19 355 12 483 -15z m-101 -200 c164 -23 360 -102 507 -202
260 -179 470 -514 507 -811 l7 -57 -85 0 c-75 0 -88 -3 -97 -19 -5 -11 -10
-75 -10 -143 0 -162 4 -168 106 -168 86 0 85 3 54 -109 -52 -187 -128 -332
-252 -479 -106 -126 -229 -222 -383 -299 -399 -201 -897 -158 -1255 107 -543
404 -659 1162 -260 1699 272 367 702 545 1161 481z m1459 -1235 l0 -75 -270 0
-270 0 0 75 0 75 270 0 270 0 0 -75z"/>
<path d="M2834 4126 c-179 -121 -322 -325 -375 -537 -20 -77 -20 -81 -3 -100
20 -22 47 -25 62 -6 5 6 17 40 26 74 49 194 188 394 346 499 48 32 58 58 34
85 -23 26 -31 24 -90 -15z"/>
</g>
</svg>
